<?xml version="1.0" encoding="UTF-8"?>
<svg width="132px" height="128px" viewBox="0 0 132 128" version="1.1" xmlns="http://www.w3.org/2000/svg" xmlns:xlink="http://www.w3.org/1999/xlink">
    <!-- Generator: sketchtool 40.1 (33804) - http://www.bohemiancoding.com/sketch -->
    <title>AAAC7B24-43A9-4800-AEDA-B8729A268DBF</title>
    <desc>Created with sketchtool.</desc>
    <defs></defs>
    <g id="--------" stroke="none" stroke-width="1" fill="none" fill-rule="evenodd">
        <g id="Homepage-Splash-/-Login" transform="translate(-180.000000, -334.000000)" fill="#D8D8D8">
            <path d="M271.062835,357.105245 C264.882926,343.473091 251.154545,333.968005 235.191561,334.000081 C213.46565,334.032157 195.877499,351.673767 195.909575,373.399678 C195.909575,374.757547 195.984418,376.094033 196.123412,377.409135 C186.896315,379.429901 179.978666,387.87649 180.000049,397.713025 C180.010741,409.057115 189.237838,418.476666 200.581928,418.455282 L201.480047,418.455282 L242.28028,379.429901 C244.129977,377.152529 247.15578,377.141838 249.016168,379.419209 L289.420802,417.974147 C302.186913,413.975382 311.80961,400.963358 311.788226,386.892837 C311.75615,369.678902 297.835316,355.522846 280.664148,355.554921 C277.32828,355.565613 274.088639,356.110899 271.062835,357.105245 Z M272.965991,424.923872 C274.815687,427.211936 273.928261,429.072324 270.987992,429.072324 L256.350801,429.072324 L256.350801,458.475008 C256.350801,459.950488 255.142618,461.147979 253.67783,461.147979 L237.640002,461.147979 C236.164522,461.147979 234.967031,459.950488 234.967031,458.475008 L234.967031,429.072324 L220.32984,429.072324 C217.389572,429.072324 216.502145,427.211936 218.351841,424.923872 C218.351841,424.923872 239.703536,403.101735 242.290972,400.514298 C244.878409,397.926862 246.268354,397.755792 249.02686,400.514298 C251.785366,403.262113 272.965991,424.923872 272.965991,424.923872 Z" id="icon_share"></path>
        </g>
    </g>
</svg>