<?xml version="1.0" encoding="UTF-8"?>
<svg width="101px" height="101px" viewBox="0 0 101 101" version="1.1" xmlns="http://www.w3.org/2000/svg" xmlns:xlink="http://www.w3.org/1999/xlink">
    <!-- Generator: sketchtool 40.1 (33804) - http://www.bohemiancoding.com/sketch -->
    <title>28D5EA25-C0A2-409B-B138-56A655D629FF</title>
    <desc>Created with sketchtool.</desc>
    <defs></defs>
    <g id="--------" stroke="none" stroke-width="1" fill="none" fill-rule="evenodd">
        <g id="Homepage-Splash-/-Login" transform="translate(-607.000000, -356.000000)" fill="#D8D8D8">
            <path d="M686.768605,435.777264 C681.763584,440.782285 675.502978,444.445129 668.662205,446.384791 C668.428407,446.454065 668.194608,446.480043 667.95215,446.480043 C667.501872,446.480043 667.051593,446.367473 666.65327,446.133674 C666.047125,445.778647 665.605506,445.19848 665.432321,444.514403 L664.670311,441.457703 C664.332602,440.098208 665.129249,438.712735 666.471426,438.323071 C671.909408,436.773073 676.879792,433.837602 680.863026,429.854367 C684.837602,425.888451 687.764414,420.909408 689.323071,415.471426 C689.65212,414.33707 690.691225,413.592379 691.825581,413.592379 C692.033402,413.592379 692.241223,413.618356 692.457703,413.670311 L695.514403,414.432321 C696.19848,414.605506 696.778647,415.047125 697.133674,415.65327 C697.488702,416.259414 697.575294,416.986787 697.384791,417.662205 C695.445129,424.511637 691.773626,430.772243 686.768605,435.777264 M662.28903,431.915258 L661.544338,428.919173 C661.206629,427.585655 661.977298,426.217501 663.302157,425.810518 C666.532041,424.823369 669.458852,423.074209 671.77086,420.762201 C674.074209,418.467511 675.814709,415.5407 676.810518,412.302157 C677.156886,411.185119 678.178673,410.466405 679.29571,410.466405 C679.503531,410.466405 679.711352,410.492383 679.927832,410.544338 L682.915258,411.28903 C683.607995,411.462214 684.196821,411.912493 684.543189,412.527296 C684.898216,413.1421 684.976149,413.878132 684.768328,414.56221 C683.408833,419.090974 680.914982,423.247393 677.581187,426.589847 C674.247393,429.923641 670.090974,432.408833 665.55355,433.776987 C665.311093,433.846261 665.059976,433.880898 664.808859,433.880898 C664.35858,433.880898 663.91696,433.768328 663.518637,433.543189 C662.903833,433.188161 662.453555,432.599335 662.28903,431.915258 M646.832347,416.562486 C641.108612,410.838751 641.108612,401.564742 646.832347,395.841006 C652.556082,390.117271 661.830092,390.117271 667.553827,395.841006 C673.277562,401.564742 673.277562,410.838751 667.553827,416.562486 C661.830092,422.286221 652.556082,422.286221 646.832347,416.562486 M637.575656,400.101336 C637.237947,401.209714 636.207502,401.937087 635.099123,401.937087 C634.891302,401.937087 634.674822,401.91111 634.467001,401.859155 L631.470916,401.105804 C630.786839,400.932619 630.198013,400.491 629.842985,399.867537 C629.496617,399.252734 629.410025,398.516701 629.617846,397.841283 C630.986,393.303859 633.471192,389.14744 636.804987,385.813646 C640.138781,382.471192 644.2952,379.986 648.832624,378.626505 C649.083741,378.548572 649.334858,378.513935 649.585975,378.513935 C650.027594,378.513935 650.477873,378.635164 650.867537,378.860304 C651.491,379.206672 651.932619,379.795498 652.105804,380.488234 L652.850495,383.47566 C653.179545,384.817837 652.408876,386.185992 651.092676,386.584315 C647.854133,387.580124 644.927322,389.320624 642.623973,391.632632 C640.311965,393.935981 638.571465,396.862793 637.575656,400.101336 M622.569252,398.802455 C622.361431,398.802455 622.144951,398.785136 621.93713,398.724522 L618.871771,397.962512 C618.196353,397.789328 617.607527,397.356367 617.261159,396.741564 C616.906132,396.135419 616.81088,395.408046 617.010042,394.732628 C618.949704,387.891855 622.621207,381.62259 627.617569,376.617569 C632.62259,371.621207 638.883196,367.949704 645.723969,366.010042 C645.957767,365.949428 646.200225,365.914791 646.434024,365.914791 C646.884302,365.914791 647.334581,366.03602 647.732905,366.269818 C648.347708,366.616186 648.780669,367.205012 648.953853,367.880431 L649.715863,370.945789 C650.062231,372.305285 649.265584,373.690758 647.914748,374.071763 C642.485426,375.63042 637.506382,378.557231 633.531807,382.540466 C629.548572,386.515042 626.621761,391.485426 625.063104,396.923407 C624.734054,398.057763 623.703608,398.802455 622.569252,398.802455 M692.691502,370.703332 C673.08706,351.098889 641.307774,351.098889 621.703332,370.703332 C602.098889,390.307774 602.098889,422.08706 621.703332,441.691502 C641.307774,461.295944 673.08706,461.295944 692.691502,441.691502 C712.295944,422.08706 712.295944,390.307774 692.691502,370.703332" id="icon_collaborate"></path>
        </g>
    </g>
</svg>