<?xml version="1.0" encoding="UTF-8"?>
<svg width="72px" height="45px" viewBox="0 0 72 45" version="1.1" xmlns="http://www.w3.org/2000/svg" xmlns:xlink="http://www.w3.org/1999/xlink">
    <!-- Generator: sketchtool 40.1 (33804) - http://www.bohemiancoding.com/sketch -->
    <title>06AE0FAB-2B93-450C-899E-0ABA46CBF6E4</title>
    <desc>Created with sketchtool.</desc>
    <defs></defs>
    <g id="Symbols" stroke="none" stroke-width="1" fill="none" fill-rule="evenodd">
        <g id="Menu" transform="translate(-177.000000, -8.000000)">
            <g id="logo" transform="translate(174.000000, 5.000000)">
                <g id="me" stroke-width="1" transform="translate(96.000000, 62.000000)" fill="#FFFFFF">
                    <path d="M0.2188,1.4052 C0.2188,0.9062 0.6468,0.4782 1.1458,0.4782 L1.3608,0.4782 C1.7638,0.4782 2.0488,0.6922 2.2398,0.9772 L8.1828,9.9162 L14.1258,0.9772 C14.3168,0.6682 14.6248,0.4782 15.0058,0.4782 L15.2198,0.4782 C15.7188,0.4782 16.1468,0.9062 16.1468,1.4052 L16.1468,16.3592 C16.1468,16.8822 15.7188,17.3092 15.2198,17.3092 C14.6968,17.3092 14.2688,16.8582 14.2688,16.3592 L14.2688,3.9492 L8.9438,11.7702 C8.7298,12.0792 8.4918,12.2462 8.1588,12.2462 C7.8258,12.2462 7.5648,12.0792 7.3508,11.7702 L2.0488,3.9732 L2.0488,16.3832 C2.0488,16.9052 1.6458,17.3092 1.1218,17.3092 C0.6228,17.3092 0.2188,16.9052 0.2188,16.3832 L0.2188,1.4052 Z" id="Fill-11"></path>
                    <path d="M20.8516,16.2402 L20.8516,1.5002 C20.8516,0.9772 21.2796,0.5502 21.7786,0.5502 L32.1206,0.5502 C32.5956,0.5502 32.9756,0.9302 32.9756,1.4052 C32.9756,1.8812 32.5956,2.2612 32.1206,2.2612 L22.7296,2.2612 L22.7296,7.9432 L31.0506,7.9432 C31.5256,7.9432 31.9066,8.3472 31.9066,8.7992 C31.9066,9.2742 31.5256,9.6552 31.0506,9.6552 L22.7296,9.6552 L22.7296,15.4792 L32.2396,15.4792 C32.7146,15.4792 33.0946,15.8592 33.0946,16.3352 C33.0946,16.8102 32.7146,17.1912 32.2396,17.1912 L21.7786,17.1912 C21.2796,17.1912 20.8516,16.7632 20.8516,16.2402" id="Fill-13"></path>
                </g>
                <g id="mix" stroke-width="1" transform="translate(96.000000, 39.000000)" fill="#009690">
                    <path d="M0.5781,1.4052 C0.5781,0.9062 1.0061,0.4782 1.5051,0.4782 L1.7201,0.4782 C2.1231,0.4782 2.4081,0.6922 2.5991,0.9772 L8.5421,9.9162 L14.4851,0.9772 C14.6761,0.6682 14.9841,0.4782 15.3651,0.4782 L15.5791,0.4782 C16.0781,0.4782 16.5061,0.9062 16.5061,1.4052 L16.5061,16.3592 C16.5061,16.8822 16.0781,17.3092 15.5791,17.3092 C15.0561,17.3092 14.6281,16.8582 14.6281,16.3592 L14.6281,3.9492 L9.3031,11.7702 C9.0891,12.0792 8.8511,12.2462 8.5181,12.2462 C8.1851,12.2462 7.9241,12.0792 7.7101,11.7702 L2.4081,3.9732 L2.4081,16.3832 C2.4081,16.9052 2.0051,17.3092 1.4811,17.3092 C0.9821,17.3092 0.5781,16.9052 0.5781,16.3832 L0.5781,1.4052 Z" id="Fill-5"></path>
                    <path d="M21.377,1.3818 C21.377,0.8588 21.806,0.4308 22.305,0.4308 C22.827,0.4308 23.256,0.8588 23.256,1.3818 L23.256,16.3588 C23.256,16.8818 22.827,17.3098 22.305,17.3098 C21.806,17.3098 21.377,16.8818 21.377,16.3588 L21.377,1.3818 Z" id="Fill-7"></path>
                    <path d="M27.6045,15.7646 L33.1675,8.7036 L27.8905,2.0476 C27.7235,1.8336 27.5815,1.6196 27.5815,1.3336 C27.5815,0.8586 27.9855,0.4306 28.5085,0.4306 C28.8885,0.4306 29.1025,0.6206 29.3405,0.9066 L34.3565,7.4196 L39.3015,0.9776 C39.5625,0.6686 39.8005,0.4306 40.2055,0.4306 C40.6565,0.4306 41.0605,0.8106 41.0605,1.3106 C41.0605,1.5486 40.9655,1.7856 40.7985,1.9756 L35.4985,8.6806 L40.9895,15.6936 C41.1795,15.9076 41.2975,16.1206 41.2975,16.3826 C41.2975,16.8816 40.8945,17.3096 40.3715,17.3096 C39.9915,17.3096 39.7765,17.1196 39.5395,16.8346 L34.2855,10.0116 L29.1025,16.7636 C28.8405,17.0726 28.6035,17.3096 28.1755,17.3096 C27.7485,17.3096 27.3435,16.9296 27.3435,16.4306 C27.3435,16.1926 27.4385,15.9546 27.6045,15.7646" id="Fill-9"></path>
                </g>
                <g id="go" stroke-width="1" transform="translate(96.000000, 17.000000)" fill="#FFFFFF">
                    <path d="M0,8.9179 L0,8.8699 C0,4.3059 3.353,0.2649 8.345,0.2649 C10.864,0.2649 12.505,0.9299 14.026,2.0469 C14.24,2.2139 14.407,2.4749 14.407,2.8079 C14.407,3.3309 13.979,3.7589 13.479,3.7589 C13.266,3.7589 13.075,3.6639 12.886,3.5219 C11.697,2.6179 10.365,1.9999 8.273,1.9999 C4.589,1.9999 1.95,5.1139 1.95,8.8229 L1.95,8.8699 C1.95,12.8399 4.493,15.7879 8.535,15.7879 C10.437,15.7879 12.196,15.0509 13.337,14.1239 L13.337,9.9879 L8.868,9.9879 C8.416,9.9879 8.036,9.6069 8.036,9.1559 C8.036,8.6799 8.416,8.2999 8.868,8.2999 L14.217,8.2999 C14.716,8.2999 15.144,8.7279 15.144,9.2509 L15.144,14.3139 C15.144,14.7659 14.93,15.1699 14.502,15.4559 C12.98,16.5729 10.936,17.4759 8.464,17.4759 C3.233,17.4759 0,13.6719 0,8.9179" id="Fill-1"></path>
                    <path d="M33.6611,8.9179 L33.6611,8.8699 C33.6611,5.0899 30.9031,1.9999 27.0991,1.9999 C23.2961,1.9999 20.5861,5.0429 20.5861,8.8229 L20.5861,8.8699 C20.5861,12.6499 23.3431,15.7409 27.1461,15.7409 C30.9501,15.7409 33.6611,12.6979 33.6611,8.9179 M18.6361,8.9179 L18.6361,8.8699 C18.6361,4.2819 22.0831,0.2649 27.1461,0.2649 C32.2111,0.2649 35.6101,4.2339 35.6101,8.8229 L35.6101,8.8699 C35.6101,13.4589 32.1631,17.4759 27.0991,17.4759 C22.0361,17.4759 18.6361,13.5059 18.6361,8.9179" id="Fill-3"></path>
                </g>
                <path d="M15.583,85.5649 C12.821,85.5649 10.583,83.3259 10.583,80.5649 L10.583,15.0009 C10.583,12.2389 12.821,10.0009 15.583,10.0009 C18.345,10.0009 20.583,12.2389 20.583,15.0009 L20.583,80.5649 C20.583,83.3259 18.345,85.5649 15.583,85.5649" id="Fill-15" fill="#FFFFFF"></path>
                <path d="M29.4932,85.5649 C26.7312,85.5649 24.4932,83.3259 24.4932,80.5649 L24.4932,32.0729 C24.4932,29.3119 26.7312,27.0729 29.4932,27.0729 C32.2552,27.0729 34.4932,29.3119 34.4932,32.0729 L34.4932,80.5649 C34.4932,83.3259 32.2552,85.5649 29.4932,85.5649" id="Fill-17" fill="#FFFFFF"></path>
                <path d="M43.4033,66.1103 C40.6413,66.1103 38.4033,63.8713 38.4033,61.1103 L38.4033,43.4553 C38.4033,40.6933 40.6413,38.4553 43.4033,38.4553 C46.1653,38.4553 48.4033,40.6933 48.4033,43.4553 L48.4033,61.1103 C48.4033,63.8713 46.1653,66.1103 43.4033,66.1103" id="Fill-19" fill="#FFFFFF"></path>
                <path d="M57.3135,85.5649 C54.5515,85.5649 52.3135,83.3259 52.3135,80.5649 L52.3135,32.0729 C52.3135,29.3119 54.5515,27.0729 57.3135,27.0729 C60.0755,27.0729 62.3135,29.3119 62.3135,32.0729 L62.3135,80.5649 C62.3135,83.3259 60.0755,85.5649 57.3135,85.5649" id="Fill-21" fill="#FFFFFF"></path>
                <path d="M66.2236,80.5649 L66.2236,15.0009 C66.2236,12.2389 68.4616,10.0009 71.2236,10.0009 C73.9856,10.0009 76.2236,12.2389 76.2236,15.0009 L76.2236,80.5649 C76.2236,83.3259 73.9856,85.5649 71.2236,85.5649 C68.4616,85.5649 66.2236,83.3259 66.2236,80.5649 Z" id="Fill-23" fill="#FFFFFF"></path>
            </g>
        </g>
    </g>
</svg>